# xmcd
#
# Track frame offsets:
# 183
# 15125
# 30915
# 44733
# 58445
# 73833
# 94445
# 103593
# 116445
# 131508
# 145758
# 168433
# 181608
# 191958
# 204383
#
# Disc length: 2844 seconds
#
#
# Revision: 0
# Processed by: cddbd v1.5.1PL0 Copyright (c) Steve Scherf et al.
# Submitted via: FreeRIP 2.942 
#
DISCID=d30b1a0f
DTITLE=Dave Peabody - Hands Across The Sea
DYEAR=1993
DGENRE=Blues
TTITLE0=Hands Across The Sea
TTITLE1=Liftime Guarantee
TTITLE2=Hey There Lucas
TTITLE3=Hard Times Knocking On My Door
TTITLE4=Hard To Write A Blues
TTITLE5=New Found Friends
TTITLE6=Miss Jessie James
TTITLE7=Go Easy Miss Daisy
TTITLE8=Cryin´ Blues
TTITLE9=Snake In The Woods
TTITLE10=I Know A Man
TTITLE11=Walking Blues
TTITLE12=Make The Most Of It
TTITLE13=Going TO The Dance
TTITLE14=I Done Got Wise On You
EXTD=
EXTT0=
EXTT1=
EXTT2=
EXTT3=
EXTT4=
EXTT5=
EXTT6=
EXTT7=
EXTT8=
EXTT9=
EXTT10=
EXTT11=
EXTT12=
EXTT13=
EXTT14=
PLAYORDER=
